<svg width="21" height="22" viewBox="0 0 21 22" fill="none" xmlns="http://www.w3.org/2000/svg">
<path fill-rule="evenodd" clip-rule="evenodd" d="M17.6525 21.087H5.23504C3.36915 21.0865 1.85681 19.5698 1.85681 17.699V6.58706L6.08375 1.40103H15.4169C16.4977 1.40172 17.534 1.83301 18.2977 2.59996C19.0613 3.36692 19.4897 4.40668 19.4885 5.49039V19.2469C19.4895 19.7354 19.2963 20.2041 18.9517 20.5494C18.6072 20.8947 18.1396 21.0881 17.6525 21.087Z" stroke="#BCC4BE" stroke-width="1.8" stroke-linecap="round" stroke-linejoin="round"/>
<path d="M11.9654 2.07005H15.4143C16.3185 2.07028 17.1855 2.43088 17.8244 3.07242C18.4633 3.71396 18.8216 4.58381 18.8204 5.49039V8.94745" stroke="#BCC4BE" stroke-width="1.8" stroke-linecap="round" stroke-linejoin="round"/>
<path d="M3.05181 5.10911L1.63353 3.68798" stroke="#BCC4BE" stroke-width="1.8" stroke-linecap="round" stroke-linejoin="round"/>
<path d="M3.27337 1.62319L4.57303 2.92626" stroke="#BCC4BE" stroke-width="1.8" stroke-linecap="round" stroke-linejoin="round"/>
<path d="M0.913047 4.51879L3.85254 0.913047" stroke="#BCC4BE" stroke-width="1.8" stroke-linecap="round" stroke-linejoin="round"/>
<path d="M11.2981 1.40103L19.3909 9.51503" stroke="#BCC4BE" stroke-width="1.8" stroke-linecap="round" stroke-linejoin="round"/>
<path fill-rule="evenodd" clip-rule="evenodd" d="M13.7317 12.8891C13.7317 14.5829 12.3622 15.9561 10.6727 15.9561C8.98328 15.9561 7.61372 14.5829 7.61372 12.8891C7.61372 11.1951 10.6727 6.53201 10.6727 6.53201C10.6727 6.53201 13.7317 11.1951 13.7317 12.8891Z" stroke="#BCC4BE" stroke-width="1.8" stroke-linecap="round" stroke-linejoin="round"/>
</svg>
