<svg width="22" height="22" viewBox="0 0 22 22" fill="none" xmlns="http://www.w3.org/2000/svg">
<path d="M3.5234 8.94393V1.54207C3.5234 1.08785 3.94182 0.719638 4.45797 0.719638H17.5421C18.0582 0.719638 18.4767 1.08785 18.4767 1.54207V8.94393" stroke="#8092A4" stroke-width="1.4" stroke-linecap="round" stroke-linejoin="round"/>
<path d="M7.2617 4.02377H9.13085" stroke="#8092A4" stroke-width="1.4" stroke-linecap="round" stroke-linejoin="round"/>
<path fill-rule="evenodd" clip-rule="evenodd" d="M21.2804 8.94393C21.2804 13.9403 16.6777 17.9906 11 17.9906C5.32231 17.9906 0.719638 13.9403 0.719638 8.94393L21.2804 8.94393Z" stroke="#8092A4" stroke-width="1.4" stroke-linecap="round" stroke-linejoin="round"/>
<path d="M6.98131 17.271L6.47897 20.3448C6.44188 20.58 6.52207 20.8178 6.69894 20.9971C6.8758 21.1763 7.13208 21.2796 7.40187 21.2803H14.5981C14.8679 21.2796 15.1242 21.1763 15.3011 20.9971C15.4779 20.8178 15.5581 20.58 15.521 20.3448L15.0187 17.271" stroke="#8092A4" stroke-width="1.4" stroke-linecap="round" stroke-linejoin="round"/>
</svg>
