<svg width="13" height="16" viewBox="0 0 13 16" fill="none" xmlns="http://www.w3.org/2000/svg">
<path fill-rule="evenodd" clip-rule="evenodd" d="M12.21 11.6648V13.8833C12.2114 14.2998 12.0744 14.6976 11.8328 14.9791C11.5912 15.2607 11.2674 15.3998 10.9409 15.3623C9.14942 15.115 7.42859 14.3375 5.91666 13.0921C4.51001 11.9567 3.31742 10.4419 2.42357 8.65512C1.43968 6.72594 0.827375 4.5295 0.636278 2.24374C0.606862 1.83027 0.715613 1.42014 0.935965 1.11352C1.15632 0.806905 1.46798 0.632044 1.79482 0.631653H3.54136C4.12579 0.624347 4.62393 1.1685 4.70573 1.90358C4.77944 2.61354 4.91615 3.31062 5.11325 3.98154C5.2732 4.52202 5.1709 5.13131 4.85127 5.54187L4.1119 6.48102C4.94067 8.33237 6.14747 9.86526 7.60499 10.918L8.34436 9.97881C8.66758 9.57282 9.14726 9.44287 9.57276 9.64604C10.101 9.89639 10.6498 10.07 11.2087 10.1637C11.7941 10.2686 12.2247 10.9141 12.21 11.6648Z" fill="#D1D5D3" stroke="#D1D5D3" stroke-width="1.2" stroke-linecap="round" stroke-linejoin="round"/>
</svg>
