<svg width="310" height="145" viewBox="0 0 310 145" fill="none" xmlns="http://www.w3.org/2000/svg">
<path d="M113.587 92.9565C119.85 89.7456 123.073 82.7416 121.393 75.9937C119.713 69.2458 113.563 64.5 106.5 64.5C99.4368 64.5 93.2874 69.2458 91.607 75.9937C89.9265 82.7416 93.1498 89.7456 99.4133 92.9565C90.84 93.586 86.5 95.3762 86.5 98.2811C86.5 102.871 97.3733 103.855 106.5 103.855C115.627 103.855 126.5 102.891 126.5 98.2811C126.5 95.3762 122.16 93.586 113.587 92.9565Z" fill="#70C786" stroke="#70C786"/>
<path fill-rule="evenodd" clip-rule="evenodd" d="M109.833 79.0352V86.1499C109.833 86.8742 109.236 87.4614 108.5 87.4614H101.833C101.097 87.4614 100.5 86.8742 100.5 86.1499V72.3794C100.5 71.6551 101.097 71.068 101.833 71.068H108.5C109.236 71.068 109.833 71.6551 109.833 72.3794V77.6844C111.371 77.9093 112.507 79.2111 112.5 80.7401V83.527C112.5 83.8891 112.798 84.1827 113.167 84.1827C113.535 84.1827 113.833 83.8891 113.833 83.527V79.5926C113.828 78.2406 113.176 76.9701 112.073 76.163C111.79 75.9313 111.751 75.5173 111.987 75.2385C112.222 74.9596 112.643 74.9214 112.927 75.1532C114.332 76.2117 115.16 77.8514 115.167 79.5926V83.527C115.167 84.6134 114.271 85.4942 113.167 85.4942C112.062 85.4942 111.167 84.6134 111.167 83.527V80.7401C111.174 79.9378 110.624 79.2342 109.833 79.0352ZM108.5 75.0024H101.833V77.6253H108.5V75.0024ZM108.5 72.3794V73.6909H101.833V72.3794H108.5ZM108.5 78.9368H101.833V86.1499H108.5V78.9368Z" fill="white"/>
<path d="M109.833 79.0352L109.955 78.5503L109.333 78.3936V79.0352H109.833ZM109.833 77.6844H109.333V78.1165L109.761 78.1791L109.833 77.6844ZM112.5 80.7401L112 80.7378V80.7401H112.5ZM113.833 79.5926H114.333L114.333 79.5906L113.833 79.5926ZM112.073 76.163L111.757 76.5501L111.767 76.5586L111.778 76.5665L112.073 76.163ZM112.927 75.1532L112.61 75.5403L112.618 75.5466L112.626 75.5526L112.927 75.1532ZM115.167 79.5926H115.667L115.667 79.5905L115.167 79.5926ZM111.167 80.7401L110.667 80.7357V80.7401H111.167ZM101.833 75.0024V74.5024H101.333V75.0024H101.833ZM108.5 75.0024H109V74.5024H108.5V75.0024ZM101.833 77.6253H101.333V78.1253H101.833V77.6253ZM108.5 77.6253V78.1253H109V77.6253H108.5ZM108.5 73.6909V74.1909H109V73.6909H108.5ZM108.5 72.3794H109V71.8794H108.5V72.3794ZM101.833 73.6909H101.333V74.1909H101.833V73.6909ZM101.833 72.3794V71.8794H101.333V72.3794H101.833ZM101.833 78.9368V78.4368H101.333V78.9368H101.833ZM108.5 78.9368H109V78.4368H108.5V78.9368ZM101.833 86.1499H101.333V86.6499H101.833V86.1499ZM108.5 86.1499V86.6499H109V86.1499H108.5ZM110.333 86.1499V79.0352H109.333V86.1499H110.333ZM108.5 87.9614C109.505 87.9614 110.333 87.1581 110.333 86.1499H109.333C109.333 86.5903 108.968 86.9614 108.5 86.9614V87.9614ZM101.833 87.9614H108.5V86.9614H101.833V87.9614ZM100 86.1499C100 87.1581 100.829 87.9614 101.833 87.9614V86.9614C101.365 86.9614 101 86.5903 101 86.1499H100ZM100 72.3794V86.1499H101V72.3794H100ZM101.833 70.568C100.829 70.568 100 71.3712 100 72.3794H101C101 71.939 101.365 71.568 101.833 71.568V70.568ZM108.5 70.568H101.833V71.568H108.5V70.568ZM110.333 72.3794C110.333 71.3712 109.505 70.568 108.5 70.568V71.568C108.968 71.568 109.333 71.939 109.333 72.3794H110.333ZM110.333 77.6844V72.3794H109.333V77.6844H110.333ZM113 80.7424C113.008 78.9582 111.684 77.4497 109.906 77.1896L109.761 78.1791C111.058 78.3689 112.006 79.4641 112 80.7378L113 80.7424ZM113 83.527V80.7401H112V83.527H113ZM113.167 83.6827C113.067 83.6827 113 83.6052 113 83.527H112C112 84.173 112.53 84.6827 113.167 84.6827V83.6827ZM113.333 83.527C113.333 83.6052 113.267 83.6827 113.167 83.6827V84.6827C113.803 84.6827 114.333 84.173 114.333 83.527H113.333ZM113.333 79.5926V83.527H114.333V79.5926H113.333ZM111.778 76.5665C112.754 77.281 113.329 78.4034 113.333 79.5945L114.333 79.5906C114.327 78.0779 113.598 76.6591 112.369 75.7596L111.778 76.5665ZM111.605 74.9157C111.188 75.4091 111.258 76.1425 111.757 76.5501L112.39 75.7759C112.321 75.72 112.314 75.6256 112.369 75.5612L111.605 74.9157ZM113.243 74.7661C112.749 74.3624 112.017 74.4273 111.605 74.9157L112.369 75.5612C112.427 75.4919 112.537 75.4804 112.61 75.5403L113.243 74.7661ZM115.667 79.5905C115.659 77.6911 114.756 75.9052 113.227 74.7538L112.626 75.5526C113.908 76.5183 114.66 78.0116 114.667 79.5946L115.667 79.5905ZM115.667 83.527V79.5926H114.667V83.527H115.667ZM113.167 85.9942C114.54 85.9942 115.667 84.8973 115.667 83.527H114.667C114.667 84.3295 114.003 84.9942 113.167 84.9942V85.9942ZM110.667 83.527C110.667 84.8973 111.794 85.9942 113.167 85.9942V84.9942C112.33 84.9942 111.667 84.3295 111.667 83.527H110.667ZM110.667 80.7401V83.527H111.667V80.7401H110.667ZM109.711 79.52C110.283 79.664 110.672 80.1693 110.667 80.7357L111.667 80.7445C111.676 79.7063 110.964 78.8045 109.955 78.5503L109.711 79.52ZM101.833 75.5024H108.5V74.5024H101.833V75.5024ZM102.333 77.6253V75.0024H101.333V77.6253H102.333ZM108.5 77.1253H101.833V78.1253H108.5V77.1253ZM108 75.0024V77.6253H109V75.0024H108ZM109 73.6909V72.3794H108V73.6909H109ZM101.833 74.1909H108.5V73.1909H101.833V74.1909ZM101.333 72.3794V73.6909H102.333V72.3794H101.333ZM108.5 71.8794H101.833V72.8794H108.5V71.8794ZM101.833 79.4368H108.5V78.4368H101.833V79.4368ZM102.333 86.1499V78.9368H101.333V86.1499H102.333ZM108.5 85.6499H101.833V86.6499H108.5V85.6499ZM108 78.9368V86.1499H109V78.9368H108Z" fill="white"/>
<path d="M27.5867 132.956C33.8502 129.746 37.0735 122.742 35.393 115.994C33.7126 109.246 27.5632 104.5 20.5 104.5C13.4368 104.5 7.28742 109.246 5.60696 115.994C3.9265 122.742 7.14979 129.746 13.4133 132.956C4.84 133.586 0.5 135.376 0.5 138.281C0.5 142.871 11.3733 143.855 20.5 143.855C29.6267 143.855 40.5 142.891 40.5 138.281C40.5 135.376 36.16 133.586 27.5867 132.956Z" fill="#70C786" stroke="#70C786"/>
<path fill-rule="evenodd" clip-rule="evenodd" d="M23.8333 119.035V126.15C23.8333 126.874 23.2364 127.461 22.5 127.461H15.8333C15.097 127.461 14.5 126.874 14.5 126.15V112.379C14.5 111.655 15.097 111.068 15.8333 111.068H22.5C23.2364 111.068 23.8333 111.655 23.8333 112.379V117.684C25.3709 117.909 26.507 119.211 26.5 120.74V123.527C26.5 123.889 26.7985 124.183 27.1667 124.183C27.5349 124.183 27.8333 123.889 27.8333 123.527V119.593C27.8281 118.241 27.176 116.97 26.0733 116.163C25.7898 115.931 25.751 115.517 25.9867 115.238C26.2223 114.96 26.6432 114.921 26.9267 115.153C28.3322 116.212 29.1595 117.851 29.1667 119.593V123.527C29.1667 124.613 28.2712 125.494 27.1667 125.494C26.0621 125.494 25.1667 124.613 25.1667 123.527V120.74C25.1738 119.938 24.6235 119.234 23.8333 119.035ZM22.5 115.002H15.8333V117.625H22.5V115.002ZM22.5 112.379V113.691H15.8333V112.379H22.5ZM22.5 118.937H15.8333V126.15H22.5V118.937Z" fill="white"/>
<path d="M23.8333 119.035L23.9555 118.55L23.3333 118.394V119.035H23.8333ZM23.8333 117.684H23.3333V118.117L23.761 118.179L23.8333 117.684ZM26.5 120.74L26 120.738V120.74H26.5ZM27.8333 119.593H28.3333L28.3333 119.591L27.8333 119.593ZM26.0733 116.163L25.7569 116.55L25.7672 116.559L25.778 116.567L26.0733 116.163ZM26.9267 115.153L26.6102 115.54L26.6179 115.547L26.6259 115.553L26.9267 115.153ZM29.1667 119.593H29.6667L29.6667 119.591L29.1667 119.593ZM25.1667 120.74L24.6667 120.736V120.74H25.1667ZM15.8333 115.002V114.502H15.3333V115.002H15.8333ZM22.5 115.002H23V114.502H22.5V115.002ZM15.8333 117.625H15.3333V118.125H15.8333V117.625ZM22.5 117.625V118.125H23V117.625H22.5ZM22.5 113.691V114.191H23V113.691H22.5ZM22.5 112.379H23V111.879H22.5V112.379ZM15.8333 113.691H15.3333V114.191H15.8333V113.691ZM15.8333 112.379V111.879H15.3333V112.379H15.8333ZM15.8333 118.937V118.437H15.3333V118.937H15.8333ZM22.5 118.937H23V118.437H22.5V118.937ZM15.8333 126.15H15.3333V126.65H15.8333V126.15ZM22.5 126.15V126.65H23V126.15H22.5ZM24.3333 126.15V119.035H23.3333V126.15H24.3333ZM22.5 127.961C23.5047 127.961 24.3333 127.158 24.3333 126.15H23.3333C23.3333 126.59 22.9681 126.961 22.5 126.961V127.961ZM15.8333 127.961H22.5V126.961H15.8333V127.961ZM14 126.15C14 127.158 14.8286 127.961 15.8333 127.961V126.961C15.3653 126.961 15 126.59 15 126.15H14ZM14 112.379V126.15H15V112.379H14ZM15.8333 110.568C14.8286 110.568 14 111.371 14 112.379H15C15 111.939 15.3653 111.568 15.8333 111.568V110.568ZM22.5 110.568H15.8333V111.568H22.5V110.568ZM24.3333 112.379C24.3333 111.371 23.5047 110.568 22.5 110.568V111.568C22.9681 111.568 23.3333 111.939 23.3333 112.379H24.3333ZM24.3333 117.684V112.379H23.3333V117.684H24.3333ZM27 120.742C27.0081 118.958 25.6835 117.45 23.9057 117.19L23.761 118.179C25.0583 118.369 26.0058 119.464 26 120.738L27 120.742ZM27 123.527V120.74H26V123.527H27ZM27.1667 123.683C27.0668 123.683 27 123.605 27 123.527H26C26 124.173 26.5302 124.683 27.1667 124.683V123.683ZM27.3333 123.527C27.3333 123.605 27.2665 123.683 27.1667 123.683V124.683C27.8032 124.683 28.3333 124.173 28.3333 123.527H27.3333ZM27.3333 119.593V123.527H28.3333V119.593H27.3333ZM25.778 116.567C26.7543 117.281 27.3287 118.403 27.3333 119.594L28.3333 119.591C28.3275 118.078 27.5978 116.659 26.3686 115.76L25.778 116.567ZM25.6048 114.916C25.1879 115.409 25.2582 116.143 25.7569 116.55L26.3898 115.776C26.3214 115.72 26.3142 115.626 26.3686 115.561L25.6048 114.916ZM27.2431 114.766C26.7494 114.362 26.0175 114.427 25.6048 114.916L26.3686 115.561C26.4271 115.492 26.5369 115.48 26.6102 115.54L27.2431 114.766ZM29.6667 119.591C29.6589 117.691 28.7563 115.905 27.2275 114.754L26.6259 115.553C27.9081 116.518 28.6602 118.012 28.6667 119.595L29.6667 119.591ZM29.6667 123.527V119.593H28.6667V123.527H29.6667ZM27.1667 125.994C28.5396 125.994 29.6667 124.897 29.6667 123.527H28.6667C28.6667 124.33 28.0029 124.994 27.1667 124.994V125.994ZM24.6667 123.527C24.6667 124.897 25.7938 125.994 27.1667 125.994V124.994C26.3304 124.994 25.6667 124.33 25.6667 123.527H24.6667ZM24.6667 120.74V123.527H25.6667V120.74H24.6667ZM23.7112 119.52C24.2827 119.664 24.6717 120.169 24.6667 120.736L25.6666 120.745C25.6758 119.706 24.9644 118.804 23.9555 118.55L23.7112 119.52ZM15.8333 115.502H22.5V114.502H15.8333V115.502ZM16.3333 117.625V115.002H15.3333V117.625H16.3333ZM22.5 117.125H15.8333V118.125H22.5V117.125ZM22 115.002V117.625H23V115.002H22ZM23 113.691V112.379H22V113.691H23ZM15.8333 114.191H22.5V113.191H15.8333V114.191ZM15.3333 112.379V113.691H16.3333V112.379H15.3333ZM22.5 111.879H15.8333V112.879H22.5V111.879ZM15.8333 119.437H22.5V118.437H15.8333V119.437ZM16.3333 126.15V118.937H15.3333V126.15H16.3333ZM22.5 125.65H15.8333V126.65H22.5V125.65ZM22 118.937V126.15H23V118.937H22Z" fill="white"/>
<path d="M296.587 48.9565C302.85 45.7456 306.073 38.7416 304.393 31.9937C302.713 25.2458 296.563 20.5 289.5 20.5C282.437 20.5 276.287 25.2458 274.607 31.9937C272.927 38.7416 276.15 45.7456 282.413 48.9565C273.84 49.586 269.5 51.3762 269.5 54.2811C269.5 58.8713 280.373 59.8549 289.5 59.8549C298.627 59.8549 309.5 58.8909 309.5 54.2811C309.5 51.3762 305.16 49.586 296.587 48.9565Z" fill="#70C786" stroke="#70C786"/>
<path fill-rule="evenodd" clip-rule="evenodd" d="M292.833 35.0352V42.1499C292.833 42.8742 292.236 43.4614 291.5 43.4614H284.833C284.097 43.4614 283.5 42.8742 283.5 42.1499V28.3794C283.5 27.6551 284.097 27.068 284.833 27.068H291.5C292.236 27.068 292.833 27.6551 292.833 28.3794V33.6844C294.371 33.9093 295.507 35.2111 295.5 36.7401V39.527C295.5 39.8891 295.798 40.1827 296.167 40.1827C296.535 40.1827 296.833 39.8891 296.833 39.527V35.5926C296.828 34.2407 296.176 32.9701 295.073 32.1631C294.79 31.9313 294.751 31.5173 294.987 31.2385C295.222 30.9596 295.643 30.9214 295.927 31.1532C297.332 32.2118 298.16 33.8514 298.167 35.5926V39.527C298.167 40.6134 297.271 41.4942 296.167 41.4942C295.062 41.4942 294.167 40.6134 294.167 39.527V36.7401C294.174 35.9378 293.624 35.2342 292.833 35.0352ZM291.5 31.0024H284.833V33.6253H291.5V31.0024ZM291.5 28.3794V29.6909H284.833V28.3794H291.5ZM291.5 34.9368H284.833V42.1499H291.5V34.9368Z" fill="white"/>
<path d="M292.833 35.0352L292.955 34.5503L292.333 34.3936V35.0352H292.833ZM292.833 33.6844H292.333V34.1165L292.761 34.1791L292.833 33.6844ZM295.5 36.7401L295 36.7378V36.7401H295.5ZM296.833 35.5926H297.333L297.333 35.5906L296.833 35.5926ZM295.073 32.1631L294.757 32.5502L294.767 32.5586L294.778 32.5665L295.073 32.1631ZM295.927 31.1532L295.61 31.5403L295.618 31.5466L295.626 31.5526L295.927 31.1532ZM298.167 35.5926H298.667L298.667 35.5905L298.167 35.5926ZM294.167 36.7401L293.667 36.7357V36.7401H294.167ZM284.833 31.0024V30.5024H284.333V31.0024H284.833ZM291.5 31.0024H292V30.5024H291.5V31.0024ZM284.833 33.6253H284.333V34.1253H284.833V33.6253ZM291.5 33.6253V34.1253H292V33.6253H291.5ZM291.5 29.6909V30.1909H292V29.6909H291.5ZM291.5 28.3794H292V27.8794H291.5V28.3794ZM284.833 29.6909H284.333V30.1909H284.833V29.6909ZM284.833 28.3794V27.8794H284.333V28.3794H284.833ZM284.833 34.9368V34.4368H284.333V34.9368H284.833ZM291.5 34.9368H292V34.4368H291.5V34.9368ZM284.833 42.1499H284.333V42.6499H284.833V42.1499ZM291.5 42.1499V42.6499H292V42.1499H291.5ZM293.333 42.1499V35.0352H292.333V42.1499H293.333ZM291.5 43.9614C292.505 43.9614 293.333 43.1581 293.333 42.1499H292.333C292.333 42.5903 291.968 42.9614 291.5 42.9614V43.9614ZM284.833 43.9614H291.5V42.9614H284.833V43.9614ZM283 42.1499C283 43.1581 283.829 43.9614 284.833 43.9614V42.9614C284.365 42.9614 284 42.5903 284 42.1499H283ZM283 28.3794V42.1499H284V28.3794H283ZM284.833 26.568C283.829 26.568 283 27.3712 283 28.3794H284C284 27.939 284.365 27.568 284.833 27.568V26.568ZM291.5 26.568H284.833V27.568H291.5V26.568ZM293.333 28.3794C293.333 27.3712 292.505 26.568 291.5 26.568V27.568C291.968 27.568 292.333 27.939 292.333 28.3794H293.333ZM293.333 33.6844V28.3794H292.333V33.6844H293.333ZM296 36.7424C296.008 34.9582 294.684 33.4497 292.906 33.1896L292.761 34.1791C294.058 34.3689 295.006 35.4641 295 36.7378L296 36.7424ZM296 39.527V36.7401H295V39.527H296ZM296.167 39.6827C296.067 39.6827 296 39.6052 296 39.527H295C295 40.173 295.53 40.6827 296.167 40.6827V39.6827ZM296.333 39.527C296.333 39.6052 296.267 39.6827 296.167 39.6827V40.6827C296.803 40.6827 297.333 40.173 297.333 39.527H296.333ZM296.333 35.5926V39.527H297.333V35.5926H296.333ZM294.778 32.5665C295.754 33.281 296.329 34.4034 296.333 35.5945L297.333 35.5906C297.327 34.0779 296.598 32.6591 295.369 31.7596L294.778 32.5665ZM294.605 30.9157C294.188 31.4091 294.258 32.1425 294.757 32.5502L295.39 31.776C295.321 31.72 295.314 31.6256 295.369 31.5612L294.605 30.9157ZM296.243 30.7661C295.749 30.3624 295.017 30.4273 294.605 30.9157L295.369 31.5612C295.427 31.4919 295.537 31.4804 295.61 31.5403L296.243 30.7661ZM298.667 35.5905C298.659 33.6911 297.756 31.9052 296.227 30.7538L295.626 31.5526C296.908 32.5183 297.66 34.0116 297.667 35.5946L298.667 35.5905ZM298.667 39.527V35.5926H297.667V39.527H298.667ZM296.167 41.9942C297.54 41.9942 298.667 40.8974 298.667 39.527H297.667C297.667 40.3295 297.003 40.9942 296.167 40.9942V41.9942ZM293.667 39.527C293.667 40.8974 294.794 41.9942 296.167 41.9942V40.9942C295.33 40.9942 294.667 40.3295 294.667 39.527H293.667ZM293.667 36.7401V39.527H294.667V36.7401H293.667ZM292.711 35.52C293.283 35.664 293.672 36.1693 293.667 36.7357L294.667 36.7445C294.676 35.7063 293.964 34.8045 292.955 34.5503L292.711 35.52ZM284.833 31.5024H291.5V30.5024H284.833V31.5024ZM285.333 33.6253V31.0024H284.333V33.6253H285.333ZM291.5 33.1253H284.833V34.1253H291.5V33.1253ZM291 31.0024V33.6253H292V31.0024H291ZM292 29.6909V28.3794H291V29.6909H292ZM284.833 30.1909H291.5V29.1909H284.833V30.1909ZM284.333 28.3794V29.6909H285.333V28.3794H284.333ZM291.5 27.8794H284.833V28.8794H291.5V27.8794ZM284.833 35.4368H291.5V34.4368H284.833V35.4368ZM285.333 42.1499V34.9368H284.333V42.1499H285.333ZM291.5 41.6499H284.833V42.6499H291.5V41.6499ZM291 34.9368V42.1499H292V34.9368H291Z" fill="white"/>
<path d="M27.5867 28.9565C33.8502 25.7456 37.0735 18.7416 35.393 11.9937C33.7126 5.2458 27.5632 0.5 20.5 0.5C13.4368 0.5 7.28742 5.2458 5.60696 11.9937C3.9265 18.7416 7.14979 25.7456 13.4133 28.9565C4.84 29.586 0.5 31.3762 0.5 34.2811C0.5 38.8713 11.3733 39.8549 20.5 39.8549C29.6267 39.8549 40.5 38.8909 40.5 34.2811C40.5 31.3762 36.16 29.586 27.5867 28.9565Z" fill="#70C786" stroke="#70C786"/>
<path fill-rule="evenodd" clip-rule="evenodd" d="M23.8333 15.0352V22.1499C23.8333 22.8742 23.2364 23.4614 22.5 23.4614H15.8333C15.097 23.4614 14.5 22.8742 14.5 22.1499V8.37945C14.5 7.65514 15.097 7.06797 15.8333 7.06797H22.5C23.2364 7.06797 23.8333 7.65514 23.8333 8.37945V13.6844C25.3709 13.9093 26.507 15.2111 26.5 16.7401V19.527C26.5 19.8891 26.7985 20.1827 27.1667 20.1827C27.5349 20.1827 27.8333 19.8891 27.8333 19.527V15.5926C27.8281 14.2407 27.176 12.9701 26.0733 12.1631C25.7898 11.9313 25.751 11.5173 25.9867 11.2385C26.2223 10.9596 26.6432 10.9214 26.9267 11.1532C28.3322 12.2118 29.1595 13.8514 29.1667 15.5926V19.527C29.1667 20.6134 28.2712 21.4942 27.1667 21.4942C26.0621 21.4942 25.1667 20.6134 25.1667 19.527V16.7401C25.1738 15.9378 24.6235 15.2342 23.8333 15.0352ZM22.5 11.0024H15.8333V13.6253H22.5V11.0024ZM22.5 8.37945V9.69092H15.8333V8.37945H22.5ZM22.5 14.9368H15.8333V22.1499H22.5V14.9368Z" fill="white"/>
<path d="M23.8333 15.0352L23.9555 14.5503L23.3333 14.3936V15.0352H23.8333ZM23.8333 13.6844H23.3333V14.1165L23.761 14.1791L23.8333 13.6844ZM26.5 16.7401L26 16.7378V16.7401H26.5ZM27.8333 15.5926H28.3333L28.3333 15.5906L27.8333 15.5926ZM26.0733 12.1631L25.7569 12.5502L25.7672 12.5586L25.778 12.5665L26.0733 12.1631ZM26.9267 11.1532L26.6102 11.5403L26.6179 11.5466L26.6259 11.5526L26.9267 11.1532ZM29.1667 15.5926H29.6667L29.6667 15.5905L29.1667 15.5926ZM25.1667 16.7401L24.6667 16.7357V16.7401H25.1667ZM15.8333 11.0024V10.5024H15.3333V11.0024H15.8333ZM22.5 11.0024H23V10.5024H22.5V11.0024ZM15.8333 13.6253H15.3333V14.1253H15.8333V13.6253ZM22.5 13.6253V14.1253H23V13.6253H22.5ZM22.5 9.69092V10.1909H23V9.69092H22.5ZM22.5 8.37945H23V7.87945H22.5V8.37945ZM15.8333 9.69092H15.3333V10.1909H15.8333V9.69092ZM15.8333 8.37945V7.87945H15.3333V8.37945H15.8333ZM15.8333 14.9368V14.4368H15.3333V14.9368H15.8333ZM22.5 14.9368H23V14.4368H22.5V14.9368ZM15.8333 22.1499H15.3333V22.6499H15.8333V22.1499ZM22.5 22.1499V22.6499H23V22.1499H22.5ZM24.3333 22.1499V15.0352H23.3333V22.1499H24.3333ZM22.5 23.9614C23.5047 23.9614 24.3333 23.1581 24.3333 22.1499H23.3333C23.3333 22.5903 22.9681 22.9614 22.5 22.9614V23.9614ZM15.8333 23.9614H22.5V22.9614H15.8333V23.9614ZM14 22.1499C14 23.1581 14.8286 23.9614 15.8333 23.9614V22.9614C15.3653 22.9614 15 22.5903 15 22.1499H14ZM14 8.37945V22.1499H15V8.37945H14ZM15.8333 6.56797C14.8286 6.56797 14 7.37124 14 8.37945H15C15 7.93904 15.3653 7.56797 15.8333 7.56797V6.56797ZM22.5 6.56797H15.8333V7.56797H22.5V6.56797ZM24.3333 8.37945C24.3333 7.37124 23.5047 6.56797 22.5 6.56797V7.56797C22.9681 7.56797 23.3333 7.93904 23.3333 8.37945H24.3333ZM24.3333 13.6844V8.37945H23.3333V13.6844H24.3333ZM27 16.7424C27.0081 14.9582 25.6835 13.4497 23.9057 13.1896L23.761 14.1791C25.0583 14.3689 26.0058 15.4641 26 16.7378L27 16.7424ZM27 19.527V16.7401H26V19.527H27ZM27.1667 19.6827C27.0668 19.6827 27 19.6052 27 19.527H26C26 20.173 26.5302 20.6827 27.1667 20.6827V19.6827ZM27.3333 19.527C27.3333 19.6052 27.2665 19.6827 27.1667 19.6827V20.6827C27.8032 20.6827 28.3333 20.173 28.3333 19.527H27.3333ZM27.3333 15.5926V19.527H28.3333V15.5926H27.3333ZM25.778 12.5665C26.7543 13.281 27.3287 14.4034 27.3333 15.5945L28.3333 15.5906C28.3275 14.0779 27.5978 12.6591 26.3686 11.7596L25.778 12.5665ZM25.6048 10.9157C25.1879 11.4091 25.2582 12.1425 25.7569 12.5502L26.3898 11.776C26.3214 11.72 26.3142 11.6256 26.3686 11.5612L25.6048 10.9157ZM27.2431 10.7661C26.7494 10.3624 26.0175 10.4273 25.6048 10.9157L26.3686 11.5612C26.4271 11.4919 26.5369 11.4804 26.6102 11.5403L27.2431 10.7661ZM29.6667 15.5905C29.6589 13.6911 28.7563 11.9052 27.2275 10.7538L26.6259 11.5526C27.9081 12.5183 28.6602 14.0116 28.6667 15.5946L29.6667 15.5905ZM29.6667 19.527V15.5926H28.6667V19.527H29.6667ZM27.1667 21.9942C28.5396 21.9942 29.6667 20.8974 29.6667 19.527H28.6667C28.6667 20.3295 28.0029 20.9942 27.1667 20.9942V21.9942ZM24.6667 19.527C24.6667 20.8974 25.7938 21.9942 27.1667 21.9942V20.9942C26.3304 20.9942 25.6667 20.3295 25.6667 19.527H24.6667ZM24.6667 16.7401V19.527H25.6667V16.7401H24.6667ZM23.7112 15.52C24.2827 15.664 24.6717 16.1693 24.6667 16.7357L25.6666 16.7445C25.6758 15.7063 24.9644 14.8045 23.9555 14.5503L23.7112 15.52ZM15.8333 11.5024H22.5V10.5024H15.8333V11.5024ZM16.3333 13.6253V11.0024H15.3333V13.6253H16.3333ZM22.5 13.1253H15.8333V14.1253H22.5V13.1253ZM22 11.0024V13.6253H23V11.0024H22ZM23 9.69092V8.37945H22V9.69092H23ZM15.8333 10.1909H22.5V9.19092H15.8333V10.1909ZM15.3333 8.37945V9.69092H16.3333V8.37945H15.3333ZM22.5 7.87945H15.8333V8.87945H22.5V7.87945ZM15.8333 15.4368H22.5V14.4368H15.8333V15.4368ZM16.3333 22.1499V14.9368H15.3333V22.1499H16.3333ZM22.5 21.6499H15.8333V22.6499H22.5V21.6499ZM22 14.9368V22.1499H23V14.9368H22Z" fill="white"/>
<path d="M296.587 127.956C302.85 124.746 306.073 117.742 304.393 110.994C302.713 104.246 296.563 99.5 289.5 99.5C282.437 99.5 276.287 104.246 274.607 110.994C272.927 117.742 276.15 124.746 282.413 127.956C273.84 128.586 269.5 130.376 269.5 133.281C269.5 137.871 280.373 138.855 289.5 138.855C298.627 138.855 309.5 137.891 309.5 133.281C309.5 130.376 305.16 128.586 296.587 127.956Z" fill="#70C786" stroke="#70C786"/>
<path fill-rule="evenodd" clip-rule="evenodd" d="M292.833 114.035V121.15C292.833 121.874 292.236 122.461 291.5 122.461H284.833C284.097 122.461 283.5 121.874 283.5 121.15V107.379C283.5 106.655 284.097 106.068 284.833 106.068H291.5C292.236 106.068 292.833 106.655 292.833 107.379V112.684C294.371 112.909 295.507 114.211 295.5 115.74V118.527C295.5 118.889 295.798 119.183 296.167 119.183C296.535 119.183 296.833 118.889 296.833 118.527V114.593C296.828 113.241 296.176 111.97 295.073 111.163C294.79 110.931 294.751 110.517 294.987 110.238C295.222 109.96 295.643 109.921 295.927 110.153C297.332 111.212 298.16 112.851 298.167 114.593V118.527C298.167 119.613 297.271 120.494 296.167 120.494C295.062 120.494 294.167 119.613 294.167 118.527V115.74C294.174 114.938 293.624 114.234 292.833 114.035ZM291.5 110.002H284.833V112.625H291.5V110.002ZM291.5 107.379V108.691H284.833V107.379H291.5ZM291.5 113.937H284.833V121.15H291.5V113.937Z" fill="white"/>
<path d="M292.833 114.035L292.955 113.55L292.333 113.394V114.035H292.833ZM292.833 112.684H292.333V113.117L292.761 113.179L292.833 112.684ZM295.5 115.74L295 115.738V115.74H295.5ZM296.833 114.593H297.333L297.333 114.591L296.833 114.593ZM295.073 111.163L294.757 111.55L294.767 111.559L294.778 111.567L295.073 111.163ZM295.927 110.153L295.61 110.54L295.618 110.547L295.626 110.553L295.927 110.153ZM298.167 114.593H298.667L298.667 114.591L298.167 114.593ZM294.167 115.74L293.667 115.736V115.74H294.167ZM284.833 110.002V109.502H284.333V110.002H284.833ZM291.5 110.002H292V109.502H291.5V110.002ZM284.833 112.625H284.333V113.125H284.833V112.625ZM291.5 112.625V113.125H292V112.625H291.5ZM291.5 108.691V109.191H292V108.691H291.5ZM291.5 107.379H292V106.879H291.5V107.379ZM284.833 108.691H284.333V109.191H284.833V108.691ZM284.833 107.379V106.879H284.333V107.379H284.833ZM284.833 113.937V113.437H284.333V113.937H284.833ZM291.5 113.937H292V113.437H291.5V113.937ZM284.833 121.15H284.333V121.65H284.833V121.15ZM291.5 121.15V121.65H292V121.15H291.5ZM293.333 121.15V114.035H292.333V121.15H293.333ZM291.5 122.961C292.505 122.961 293.333 122.158 293.333 121.15H292.333C292.333 121.59 291.968 121.961 291.5 121.961V122.961ZM284.833 122.961H291.5V121.961H284.833V122.961ZM283 121.15C283 122.158 283.829 122.961 284.833 122.961V121.961C284.365 121.961 284 121.59 284 121.15H283ZM283 107.379V121.15H284V107.379H283ZM284.833 105.568C283.829 105.568 283 106.371 283 107.379H284C284 106.939 284.365 106.568 284.833 106.568V105.568ZM291.5 105.568H284.833V106.568H291.5V105.568ZM293.333 107.379C293.333 106.371 292.505 105.568 291.5 105.568V106.568C291.968 106.568 292.333 106.939 292.333 107.379H293.333ZM293.333 112.684V107.379H292.333V112.684H293.333ZM296 115.742C296.008 113.958 294.684 112.45 292.906 112.19L292.761 113.179C294.058 113.369 295.006 114.464 295 115.738L296 115.742ZM296 118.527V115.74H295V118.527H296ZM296.167 118.683C296.067 118.683 296 118.605 296 118.527H295C295 119.173 295.53 119.683 296.167 119.683V118.683ZM296.333 118.527C296.333 118.605 296.267 118.683 296.167 118.683V119.683C296.803 119.683 297.333 119.173 297.333 118.527H296.333ZM296.333 114.593V118.527H297.333V114.593H296.333ZM294.778 111.567C295.754 112.281 296.329 113.403 296.333 114.594L297.333 114.591C297.327 113.078 296.598 111.659 295.369 110.76L294.778 111.567ZM294.605 109.916C294.188 110.409 294.258 111.143 294.757 111.55L295.39 110.776C295.321 110.72 295.314 110.626 295.369 110.561L294.605 109.916ZM296.243 109.766C295.749 109.362 295.017 109.427 294.605 109.916L295.369 110.561C295.427 110.492 295.537 110.48 295.61 110.54L296.243 109.766ZM298.667 114.591C298.659 112.691 297.756 110.905 296.227 109.754L295.626 110.553C296.908 111.518 297.66 113.012 297.667 114.595L298.667 114.591ZM298.667 118.527V114.593H297.667V118.527H298.667ZM296.167 120.994C297.54 120.994 298.667 119.897 298.667 118.527H297.667C297.667 119.33 297.003 119.994 296.167 119.994V120.994ZM293.667 118.527C293.667 119.897 294.794 120.994 296.167 120.994V119.994C295.33 119.994 294.667 119.33 294.667 118.527H293.667ZM293.667 115.74V118.527H294.667V115.74H293.667ZM292.711 114.52C293.283 114.664 293.672 115.169 293.667 115.736L294.667 115.745C294.676 114.706 293.964 113.804 292.955 113.55L292.711 114.52ZM284.833 110.502H291.5V109.502H284.833V110.502ZM285.333 112.625V110.002H284.333V112.625H285.333ZM291.5 112.125H284.833V113.125H291.5V112.125ZM291 110.002V112.625H292V110.002H291ZM292 108.691V107.379H291V108.691H292ZM284.833 109.191H291.5V108.191H284.833V109.191ZM284.333 107.379V108.691H285.333V107.379H284.333ZM291.5 106.879H284.833V107.879H291.5V106.879ZM284.833 114.437H291.5V113.437H284.833V114.437ZM285.333 121.15V113.937H284.333V121.15H285.333ZM291.5 120.65H284.833V121.65H291.5V120.65ZM291 113.937V121.15H292V113.937H291Z" fill="white"/>
<circle cx="183.5" cy="98.8549" r="20" fill="#F18241"/>
<path fill-rule="evenodd" clip-rule="evenodd" d="M174.5 98.3285L193.5 88.8549L184.5 108.855L182.5 100.434L174.5 98.3285Z" fill="white"/>
</svg>
