<svg width="23" height="21" viewBox="0 0 23 21" fill="none" xmlns="http://www.w3.org/2000/svg">
<path fill-rule="evenodd" clip-rule="evenodd" d="M10.321 4.56925L12.6789 6.17689C13.1725 6.51511 13.4634 7.04398 13.4649 7.6059V19.038C13.4636 20.0241 12.5846 20.8232 11.5 20.8243H2.06847C0.983797 20.8232 0.104796 20.0241 0.103578 19.038V7.6059C0.105046 7.04398 0.395923 6.51511 0.889536 6.17689L3.24741 4.56925V2.96161H2.85443C2.63739 2.96161 2.46145 2.80166 2.46145 2.60435V0.460832C2.46145 0.263526 2.63739 0.103578 2.85443 0.103578H10.714C10.931 0.103578 11.107 0.263526 11.107 0.460832V2.60435C11.107 2.80166 10.931 2.96161 10.714 2.96161H10.321V4.56925ZM4.81933 0.818085V2.2471H6.39124V0.818085H4.81933ZM7.1772 0.818085H8.74912V2.2471H7.1772V0.818085ZM9.53507 2.2471H10.321V0.818085H9.53507V2.2471ZM3.24741 0.818085H4.03337V2.2471H3.24741V0.818085ZM3.87618 5.03368L1.36111 6.7485C1.06493 6.95142 0.890405 7.26875 0.889536 7.6059V7.96316H12.6789V7.6059C12.678 7.26875 12.5035 6.95142 12.2073 6.7485L9.69226 5.03368C9.59331 4.96621 9.53507 4.86032 9.53507 4.74788V2.96161H4.03337V4.74788C4.03337 4.86032 3.97513 4.96621 3.87618 5.03368ZM12.6789 16.5372H0.889536V8.67766H12.6789V16.5372ZM2.06847 20.1098H11.5C12.1508 20.1091 12.6781 19.6296 12.6789 19.038V17.2518H0.889536V19.038C0.890267 19.6297 1.41767 20.1091 2.06847 20.1098Z" fill="#8092A4"/>
<path d="M12.6789 6.17689L12.7375 6.09142L12.7373 6.09129L12.6789 6.17689ZM10.321 4.56925H10.2174V4.624L10.2627 4.65485L10.321 4.56925ZM13.4649 7.6059H13.5685L13.5685 7.60563L13.4649 7.6059ZM13.4649 19.038L13.5685 19.0381V19.038H13.4649ZM11.5 20.8243V20.9279H11.5001L11.5 20.8243ZM2.06847 20.8243L2.06837 20.9279H2.06847V20.8243ZM0.103578 19.038H-2.53726e-05L-2.52182e-05 19.0381L0.103578 19.038ZM0.103578 7.6059L-2.52954e-05 7.60563V7.6059H0.103578ZM0.889536 6.17689L0.831172 6.09129L0.830976 6.09142L0.889536 6.17689ZM3.24741 4.56925L3.30577 4.65485L3.35101 4.624V4.56925H3.24741ZM3.24741 2.96161H3.35101V2.858H3.24741V2.96161ZM10.321 2.96161V2.858H10.2174V2.96161H10.321ZM4.81933 2.2471H4.71572V2.3507H4.81933V2.2471ZM4.81933 0.818085V0.714482H4.71572V0.818085H4.81933ZM6.39124 2.2471V2.3507H6.49485V2.2471H6.39124ZM6.39124 0.818085H6.49485V0.714482H6.39124V0.818085ZM8.74912 0.818085H8.85272V0.714482H8.74912V0.818085ZM7.1772 0.818085V0.714482H7.0736V0.818085H7.1772ZM8.74912 2.2471V2.3507H8.85272V2.2471H8.74912ZM7.1772 2.2471H7.0736V2.3507H7.1772V2.2471ZM10.321 2.2471V2.3507H10.4246V2.2471H10.321ZM9.53507 2.2471H9.43147V2.3507H9.53507V2.2471ZM10.321 0.818085H10.4246V0.714482H10.321V0.818085ZM9.53507 0.818085V0.714482H9.43147V0.818085H9.53507ZM4.03337 0.818085H4.13697V0.714482H4.03337V0.818085ZM3.24741 0.818085V0.714482H3.14381V0.818085H3.24741ZM4.03337 2.2471V2.3507H4.13697V2.2471H4.03337ZM3.24741 2.2471H3.14381V2.3507H3.24741V2.2471ZM1.36111 6.7485L1.30275 6.6629L1.30255 6.66303L1.36111 6.7485ZM3.87618 5.03368L3.93454 5.11928L3.87618 5.03368ZM0.889536 7.6059L0.785933 7.60564V7.6059H0.889536ZM0.889536 7.96316H0.785933V8.06676H0.889536V7.96316ZM12.6789 7.96316V8.06676H12.7825V7.96316H12.6789ZM12.6789 7.6059H12.7825L12.7825 7.60564L12.6789 7.6059ZM12.2073 6.7485L12.2659 6.66303L12.2657 6.6629L12.2073 6.7485ZM9.69226 5.03368L9.6339 5.11928L9.69226 5.03368ZM9.53507 2.96161H9.63868V2.858H9.53507V2.96161ZM4.03337 2.96161V2.858H3.92976V2.96161H4.03337ZM0.889536 16.5372H0.785933V16.6408H0.889536V16.5372ZM12.6789 16.5372V16.6408H12.7825V16.5372H12.6789ZM0.889536 8.67766V8.57406H0.785933V8.67766H0.889536ZM12.6789 8.67766H12.7825V8.57406H12.6789V8.67766ZM11.5 20.1098V20.2134H11.5001L11.5 20.1098ZM2.06847 20.1098L2.06837 20.2134H2.06847V20.1098ZM12.6789 19.038L12.7825 19.0382V19.038H12.6789ZM12.6789 17.2518H12.7825V17.1481H12.6789V17.2518ZM0.889536 17.2518V17.1481H0.785933V17.2518H0.889536ZM0.889536 19.038H0.785933L0.785933 19.0381L0.889536 19.038ZM12.7373 6.09129L10.3794 4.48365L10.2627 4.65485L12.6205 6.26249L12.7373 6.09129ZM13.5685 7.60563C13.5669 7.0071 13.257 6.44743 12.7375 6.09142L12.6203 6.26236C13.088 6.58279 13.3599 7.08086 13.3613 7.60617L13.5685 7.60563ZM13.5685 19.038V7.6059H13.3613V19.038H13.5685ZM11.5001 20.9279C12.6324 20.9267 13.5672 20.0904 13.5685 19.0381L13.3613 19.0379C13.3601 19.9578 12.5369 20.7196 11.4999 20.7207L11.5001 20.9279ZM2.06847 20.9279H11.5V20.7207H2.06847V20.9279ZM-2.52182e-05 19.0381C0.00127473 20.0904 0.936045 20.9267 2.06837 20.9279L2.06858 20.7207C1.03155 20.7196 0.208318 19.9578 0.207182 19.0379L-2.52182e-05 19.0381ZM-2.52954e-05 7.6059V19.038H0.207182V7.6059H-2.52954e-05ZM0.830976 6.09142C0.311408 6.44743 0.00153857 7.0071 -2.49403e-05 7.60563L0.207181 7.60617C0.208554 7.08086 0.480438 6.58279 0.948097 6.26236L0.830976 6.09142ZM3.18905 4.48365L0.831172 6.09129L0.9479 6.26249L3.30577 4.65485L3.18905 4.48365ZM3.14381 2.96161V4.56925H3.35101V2.96161H3.14381ZM2.85443 3.06521H3.24741V2.858H2.85443V3.06521ZM2.35785 2.60435C2.35785 2.86795 2.58969 3.06521 2.85443 3.06521V2.858C2.6851 2.858 2.56506 2.73537 2.56506 2.60435H2.35785ZM2.35785 0.460832V2.60435H2.56506V0.460832H2.35785ZM2.85443 -2.52954e-05C2.58969 -2.52954e-05 2.35785 0.197236 2.35785 0.460832H2.56506C2.56506 0.329816 2.6851 0.207182 2.85443 0.207182V-2.52954e-05ZM10.714 -2.52954e-05H2.85443V0.207182H10.714V-2.52954e-05ZM11.2106 0.460832C11.2106 0.197237 10.9788 -2.52954e-05 10.714 -2.52954e-05V0.207182C10.8833 0.207182 11.0034 0.329816 11.0034 0.460832H11.2106ZM11.2106 2.60435V0.460832H11.0034V2.60435H11.2106ZM10.714 3.06521C10.9788 3.06521 11.2106 2.86795 11.2106 2.60435H11.0034C11.0034 2.73537 10.8833 2.858 10.714 2.858V3.06521ZM10.321 3.06521H10.714V2.858H10.321V3.06521ZM10.4246 4.56925V2.96161H10.2174V4.56925H10.4246ZM4.92293 2.2471V0.818085H4.71572V2.2471H4.92293ZM6.39124 2.1435H4.81933V2.3507H6.39124V2.1435ZM6.28764 0.818085V2.2471H6.49485V0.818085H6.28764ZM4.81933 0.921689H6.39124V0.714482H4.81933V0.921689ZM8.74912 0.714482H7.1772V0.921689H8.74912V0.714482ZM8.85272 2.2471V0.818085H8.64551V2.2471H8.85272ZM7.1772 2.3507H8.74912V2.1435H7.1772V2.3507ZM7.0736 0.818085V2.2471H7.2808V0.818085H7.0736ZM10.321 2.1435H9.53507V2.3507H10.321V2.1435ZM10.2174 0.818085V2.2471H10.4246V0.818085H10.2174ZM9.53507 0.921689H10.321V0.714482H9.53507V0.921689ZM9.63868 2.2471V0.818085H9.43147V2.2471H9.63868ZM4.03337 0.714482H3.24741V0.921689H4.03337V0.714482ZM4.13697 2.2471V0.818085H3.92976V2.2471H4.13697ZM3.24741 2.3507H4.03337V2.1435H3.24741V2.3507ZM3.14381 0.818085V2.2471H3.35101V0.818085H3.14381ZM1.41947 6.8341L3.93454 5.11928L3.81781 4.94808L1.30275 6.6629L1.41947 6.8341ZM0.993139 7.60617C0.993914 7.30563 1.14945 7.0191 1.41967 6.83396L1.30255 6.66303C0.980418 6.88374 0.786896 7.23186 0.785933 7.60564L0.993139 7.60617ZM0.99314 7.96316V7.6059H0.785933V7.96316H0.99314ZM12.6789 7.85955H0.889536V8.06676H12.6789V7.85955ZM12.5753 7.6059V7.96316H12.7825V7.6059H12.5753ZM12.1488 6.83396C12.419 7.0191 12.5745 7.30563 12.5753 7.60617L12.7825 7.60564C12.7815 7.23186 12.588 6.88374 12.2659 6.66303L12.1488 6.83396ZM9.6339 5.11928L12.149 6.8341L12.2657 6.6629L9.75063 4.94808L9.6339 5.11928ZM9.43147 4.74788C9.43147 4.89714 9.50882 5.034 9.6339 5.11928L9.75063 4.94808C9.6778 4.89842 9.63868 4.8235 9.63868 4.74788H9.43147ZM9.43147 2.96161V4.74788H9.63868V2.96161H9.43147ZM4.03337 3.06521H9.53507V2.858H4.03337V3.06521ZM4.13697 4.74788V2.96161H3.92976V4.74788H4.13697ZM3.93454 5.11928C4.05962 5.034 4.13697 4.89714 4.13697 4.74788H3.92976C3.92976 4.8235 3.89065 4.89842 3.81781 4.94808L3.93454 5.11928ZM0.889536 16.6408H12.6789V16.4336H0.889536V16.6408ZM0.785933 8.67766V16.5372H0.99314V8.67766H0.785933ZM12.6789 8.57406H0.889536V8.78127H12.6789V8.57406ZM12.7825 16.5372V8.67766H12.5753V16.5372H12.7825ZM11.5 20.0062H2.06847V20.2134H11.5V20.0062ZM12.5753 19.0379C12.5746 19.5634 12.103 20.0055 11.4999 20.0062L11.5001 20.2134C12.1985 20.2126 12.7817 19.6959 12.7825 19.0382L12.5753 19.0379ZM12.5753 17.2518V19.038H12.7825V17.2518H12.5753ZM0.889536 17.3554H12.6789V17.1481H0.889536V17.3554ZM0.99314 19.038V17.2518H0.785933V19.038H0.99314ZM2.06858 20.0062C1.46542 20.0056 0.993789 19.5634 0.99314 19.0379L0.785933 19.0381C0.786745 19.696 1.36992 20.2127 2.06837 20.2134L2.06858 20.0062Z" fill="#8092A4"/>
<path fill-rule="evenodd" clip-rule="evenodd" d="M5.60527 13.6792H4.42633C4.2093 13.6792 4.03335 13.5192 4.03335 13.3219V11.8929C4.03335 11.6956 4.2093 11.5357 4.42633 11.5357H5.60527V10.4639C5.60527 10.2666 5.78121 10.1067 5.99825 10.1067H7.57017C7.7872 10.1067 7.96314 10.2666 7.96314 10.4639V11.5357H9.14208C9.35912 11.5357 9.53506 11.6956 9.53506 11.8929V13.3219C9.53506 13.5192 9.35912 13.6792 9.14208 13.6792H7.96314V14.751C7.96314 14.9483 7.7872 15.1082 7.57017 15.1082H5.99825C5.78121 15.1082 5.60527 14.9483 5.60527 14.751V13.6792ZM5.99825 12.2502H4.81931V12.9647H5.99825C6.21529 12.9647 6.39123 13.1246 6.39123 13.3219V14.3937H7.17719V13.3219C7.17719 13.1246 7.35313 12.9647 7.57017 12.9647H8.7491V12.2502H7.57017C7.35313 12.2502 7.17719 12.0902 7.17719 11.8929V10.8212H6.39123V11.8929C6.39123 12.0902 6.21529 12.2502 5.99825 12.2502Z" fill="#8092A4"/>
<path d="M5.60527 13.6792H5.70887V13.5756H5.60527V13.6792ZM5.60527 11.5357V11.6393H5.70887V11.5357H5.60527ZM7.96314 11.5357H7.85954V11.6393H7.96314V11.5357ZM7.96314 13.6792V13.5756H7.85954V13.6792H7.96314ZM4.81931 12.2502V12.1466H4.71571V12.2502H4.81931ZM4.81931 12.9647H4.71571V13.0683H4.81931V12.9647ZM6.39123 14.3937H6.28763V14.4973H6.39123V14.3937ZM7.17719 14.3937V14.4973H7.28079V14.3937H7.17719ZM8.7491 12.9647V13.0683H8.85271V12.9647H8.7491ZM8.7491 12.2502H8.85271V12.1466H8.7491V12.2502ZM7.17719 10.8212H7.28079V10.7176H7.17719V10.8212ZM6.39123 10.8212V10.7176H6.28763V10.8212H6.39123ZM4.42633 13.7828H5.60527V13.5756H4.42633V13.7828ZM3.92975 13.3219C3.92975 13.5855 4.16159 13.7828 4.42633 13.7828V13.5756C4.257 13.5756 4.13696 13.453 4.13696 13.3219H3.92975ZM3.92975 11.8929V13.3219H4.13696V11.8929H3.92975ZM4.42633 11.4321C4.16159 11.4321 3.92975 11.6293 3.92975 11.8929H4.13696C4.13696 11.7619 4.257 11.6393 4.42633 11.6393V11.4321ZM5.60527 11.4321H4.42633V11.6393H5.60527V11.4321ZM5.50167 10.4639V11.5357H5.70887V10.4639H5.50167ZM5.99825 10.0031C5.73351 10.0031 5.50167 10.2003 5.50167 10.4639H5.70887C5.70887 10.3329 5.82892 10.2103 5.99825 10.2103V10.0031ZM7.57017 10.0031H5.99825V10.2103H7.57017V10.0031ZM8.06675 10.4639C8.06675 10.2003 7.83491 10.0031 7.57017 10.0031V10.2103C7.7395 10.2103 7.85954 10.3329 7.85954 10.4639H8.06675ZM8.06675 11.5357V10.4639H7.85954V11.5357H8.06675ZM9.14208 11.4321H7.96314V11.6393H9.14208V11.4321ZM9.63866 11.8929C9.63866 11.6293 9.40682 11.4321 9.14208 11.4321V11.6393C9.31141 11.6393 9.43146 11.7619 9.43146 11.8929H9.63866ZM9.63866 13.3219V11.8929H9.43146V13.3219H9.63866ZM9.14208 13.7828C9.40682 13.7828 9.63866 13.5855 9.63866 13.3219H9.43146C9.43146 13.453 9.31141 13.5756 9.14208 13.5756V13.7828ZM7.96314 13.7828H9.14208V13.5756H7.96314V13.7828ZM8.06675 14.751V13.6792H7.85954V14.751H8.06675ZM7.57017 15.2118C7.83491 15.2118 8.06675 15.0145 8.06675 14.751H7.85954C7.85954 14.882 7.7395 15.0046 7.57017 15.0046V15.2118ZM5.99825 15.2118H7.57017V15.0046H5.99825V15.2118ZM5.50167 14.751C5.50167 15.0145 5.73351 15.2118 5.99825 15.2118V15.0046C5.82892 15.0046 5.70887 14.882 5.70887 14.751H5.50167ZM5.50167 13.6792V14.751H5.70887V13.6792H5.50167ZM4.81931 12.3538H5.99825V12.1466H4.81931V12.3538ZM4.92292 12.9647V12.2502H4.71571V12.9647H4.92292ZM5.99825 12.8611H4.81931V13.0683H5.99825V12.8611ZM6.49483 13.3219C6.49483 13.0583 6.26299 12.8611 5.99825 12.8611V13.0683C6.16758 13.0683 6.28763 13.1909 6.28763 13.3219H6.49483ZM6.49483 14.3937V13.3219H6.28763V14.3937H6.49483ZM7.17719 14.2901H6.39123V14.4973H7.17719V14.2901ZM7.07358 13.3219V14.3937H7.28079V13.3219H7.07358ZM7.57017 12.8611C7.30542 12.8611 7.07358 13.0583 7.07358 13.3219H7.28079C7.28079 13.1909 7.40083 13.0683 7.57017 13.0683V12.8611ZM8.7491 12.8611H7.57017V13.0683H8.7491V12.8611ZM8.6455 12.2502V12.9647H8.85271V12.2502H8.6455ZM7.57017 12.3538H8.7491V12.1466H7.57017V12.3538ZM7.07358 11.8929C7.07358 12.1565 7.30542 12.3538 7.57017 12.3538V12.1466C7.40083 12.1466 7.28079 12.0239 7.28079 11.8929H7.07358ZM7.07358 10.8212V11.8929H7.28079V10.8212H7.07358ZM6.39123 10.9248H7.17719V10.7176H6.39123V10.9248ZM6.49483 11.8929V10.8212H6.28763V11.8929H6.49483ZM5.99825 12.3538C6.26299 12.3538 6.49483 12.1565 6.49483 11.8929H6.28763C6.28763 12.0239 6.16758 12.1466 5.99825 12.1466V12.3538Z" fill="#8092A4"/>
<path fill-rule="evenodd" clip-rule="evenodd" d="M19.8677 16.642L21.5349 15.1262C22.301 14.4282 22.301 13.2981 21.5349 12.6C21.5306 12.5961 21.5262 12.5924 21.5218 12.5887L21.5218 12.5887L21.512 12.5802L21.5048 12.5739C21.4909 12.5616 21.477 12.5494 21.4629 12.5377L21.4523 12.5294L21.4444 12.5232C21.4254 12.5079 21.4062 12.4927 21.3866 12.4781L21.3835 12.4759L21.3796 12.4731C20.658 11.9436 19.6274 11.9449 18.9073 12.4762L18.9051 12.4778C18.8829 12.4943 18.8611 12.5114 18.8396 12.5288L18.8289 12.5373C18.8041 12.5576 18.7799 12.5785 18.7563 12.6L17.0889 14.1157V14.116L15.4219 15.6315C14.672 16.3316 14.6801 17.4496 15.4401 18.1406C16.2002 18.8317 17.43 18.8393 18.2002 18.1576L19.867 16.6424L19.8677 16.642ZM19.5897 15.884L17.9225 14.3684L18.3311 13.9969L19.3119 13.1053C19.7726 12.6874 20.5184 12.6874 20.9791 13.1053C21.0075 13.1311 21.0344 13.1582 21.0598 13.1865V13.1868C21.4115 13.581 21.4115 14.1453 21.0598 14.5395V14.5397C21.0344 14.568 21.0075 14.5951 20.9791 14.621L19.5897 15.884ZM16.503 17.935C16.9117 18.0338 17.3473 17.9259 17.6445 17.6524L19.0338 16.3894L17.3666 14.8737L15.9772 16.1368C15.6764 16.407 15.5578 16.803 15.6664 17.1745C15.775 17.5461 16.0943 17.8363 16.503 17.935Z" fill="#8092A4"/>
<path d="M21.5349 15.1262L21.6046 15.2029L21.6046 15.2028L21.5349 15.1262ZM19.8677 16.642L19.9228 16.7296L19.9306 16.7248L19.9373 16.7186L19.8677 16.642ZM21.5349 12.6L21.4649 12.6765L21.4651 12.6766L21.5349 12.6ZM21.5218 12.5887L21.5889 12.5097L21.5871 12.5083L21.5218 12.5887ZM21.5218 12.5887L21.4542 12.6672L21.4565 12.6691L21.5218 12.5887ZM21.512 12.5802L21.4435 12.658L21.4444 12.6587L21.512 12.5802ZM21.5048 12.5739L21.4363 12.6516L21.4363 12.6516L21.5048 12.5739ZM21.4629 12.5377L21.529 12.4579L21.527 12.4563L21.4629 12.5377ZM21.4523 12.5294L21.5165 12.448L21.5161 12.4477L21.4523 12.5294ZM21.4444 12.5232L21.3795 12.604L21.3806 12.6049L21.4444 12.5232ZM21.3866 12.4781L21.4484 12.3949L21.4464 12.3935L21.3866 12.4781ZM21.3835 12.4759L21.3227 12.5598L21.3238 12.5606L21.3835 12.4759ZM21.3796 12.4731L21.3183 12.5566L21.3188 12.557L21.3796 12.4731ZM18.9073 12.4762L18.9671 12.5608L18.9688 12.5596L18.9073 12.4762ZM18.9051 12.4778L18.8453 12.3931L18.8432 12.3946L18.9051 12.4778ZM18.8396 12.5288L18.9036 12.6104L18.9049 12.6093L18.8396 12.5288ZM18.8289 12.5373L18.7649 12.4558L18.7631 12.4573L18.8289 12.5373ZM18.7563 12.6L18.6866 12.5233L18.6866 12.5234L18.7563 12.6ZM17.0889 14.1157L17.0193 14.0391L16.9853 14.0699V14.1157H17.0889ZM17.0889 14.116L17.1586 14.1926L17.1926 14.1618V14.116H17.0889ZM15.4219 15.6315L15.3522 15.5548L15.3512 15.5557L15.4219 15.6315ZM18.2002 18.1576L18.2689 18.2352L18.2699 18.2343L18.2002 18.1576ZM19.867 16.6424L19.8118 16.5547L19.8041 16.5595L19.7973 16.5657L19.867 16.6424ZM17.9225 14.3684L17.8528 14.2917L17.7684 14.3684L17.8528 14.445L17.9225 14.3684ZM19.5897 15.884L19.52 15.9607L19.5897 16.0241L19.6594 15.9607L19.5897 15.884ZM18.3311 13.9969L18.4008 14.0735L18.3311 13.9969ZM19.3119 13.1053L19.2423 13.0285L19.2422 13.0286L19.3119 13.1053ZM20.9791 13.1053L21.0488 13.0286L21.0487 13.0285L20.9791 13.1053ZM21.0598 13.1865H21.1634V13.1468L21.1369 13.1173L21.0598 13.1865ZM21.0598 13.1868H20.9562V13.2263L20.9825 13.2558L21.0598 13.1868ZM21.0598 14.5395L20.9825 14.4705L20.9562 14.5V14.5395H21.0598ZM21.0598 14.5397L21.1369 14.6089L21.1634 14.5794V14.5397H21.0598ZM20.9791 14.621L21.0488 14.6976L21.0488 14.6976L20.9791 14.621ZM17.6445 17.6524L17.5748 17.5758L17.5743 17.5762L17.6445 17.6524ZM16.503 17.935L16.4786 18.0357H16.4786L16.503 17.935ZM19.0338 16.3894L19.1035 16.466L19.1879 16.3894L19.1035 16.3127L19.0338 16.3894ZM17.3666 14.8737L17.4363 14.7971L17.3666 14.7337L17.2969 14.7971L17.3666 14.8737ZM15.9772 16.1368L16.0464 16.2139L16.0469 16.2135L15.9772 16.1368ZM15.6664 17.1745L15.567 17.2036L15.6664 17.1745ZM21.4652 15.0496L19.798 16.5653L19.9373 16.7186L21.6046 15.2029L21.4652 15.0496ZM21.4651 12.6766C22.1861 13.3336 22.1861 14.3927 21.4651 15.0496L21.6046 15.2028C22.4159 14.4636 22.4159 13.2626 21.6046 12.5234L21.4651 12.6766ZM21.4548 12.6677C21.4594 12.6716 21.4623 12.6741 21.4649 12.6765L21.6048 12.5236C21.5989 12.5182 21.593 12.5132 21.5888 12.5097L21.4548 12.6677ZM21.4565 12.6691L21.4565 12.6691L21.5871 12.5083L21.5871 12.5083L21.4565 12.6691ZM21.4444 12.6587L21.4542 12.6672L21.5894 12.5101L21.5796 12.5017L21.4444 12.6587ZM21.4363 12.6516L21.4435 12.658L21.5804 12.5024L21.5732 12.4961L21.4363 12.6516ZM21.3968 12.6175C21.4095 12.628 21.4222 12.6392 21.4363 12.6516L21.5732 12.4961C21.5595 12.484 21.5445 12.4708 21.5289 12.4579L21.3968 12.6175ZM21.3882 12.6107L21.3987 12.619L21.527 12.4563L21.5165 12.448L21.3882 12.6107ZM21.3806 12.6049L21.3885 12.611L21.5161 12.4477L21.5082 12.4416L21.3806 12.6049ZM21.3248 12.5613C21.3428 12.5746 21.3606 12.5888 21.3795 12.604L21.5093 12.4425C21.4901 12.427 21.4697 12.4108 21.4484 12.3949L21.3248 12.5613ZM21.3238 12.5606L21.3268 12.5627L21.4464 12.3935L21.4433 12.3913L21.3238 12.5606ZM21.3188 12.557L21.3227 12.5598L21.4444 12.3921L21.4405 12.3893L21.3188 12.557ZM18.9688 12.5596C19.6524 12.0552 20.6332 12.054 21.3184 12.5566L21.4409 12.3896C20.6827 11.8333 19.6023 11.8346 18.8458 12.3928L18.9688 12.5596ZM18.9649 12.5624L18.9671 12.5608L18.8475 12.3916L18.8453 12.3932L18.9649 12.5624ZM18.9049 12.6093C18.9256 12.5925 18.9462 12.5763 18.967 12.5609L18.8432 12.3946C18.8196 12.4122 18.7967 12.4303 18.7743 12.4484L18.9049 12.6093ZM18.8928 12.6188L18.9036 12.6104L18.7757 12.4473L18.7649 12.4558L18.8928 12.6188ZM18.8259 12.6767C18.8483 12.6564 18.8712 12.6366 18.8947 12.6173L18.7631 12.4573C18.737 12.4787 18.7115 12.5007 18.6866 12.5233L18.8259 12.6767ZM17.1586 14.1924L18.8259 12.6767L18.6866 12.5234L17.0193 14.0391L17.1586 14.1924ZM17.1926 14.116V14.1157H16.9853V14.116H17.1926ZM15.4916 15.7081L17.1586 14.1926L17.0193 14.0393L15.3522 15.5548L15.4916 15.7081ZM15.5098 18.064C14.7945 17.4136 14.787 16.3659 15.4926 15.7072L15.3512 15.5557C14.5569 16.2973 14.5657 17.4856 15.3704 18.2173L15.5098 18.064ZM18.1316 18.08C17.4009 18.7267 16.2307 18.7194 15.5098 18.064L15.3704 18.2173C16.1697 18.944 17.4591 18.9518 18.2689 18.2352L18.1316 18.08ZM19.7973 16.5657L18.1306 18.0809L18.2699 18.2343L19.9367 16.719L19.7973 16.5657ZM19.8125 16.5543L19.8118 16.5547L19.9222 16.73L19.9228 16.7296L19.8125 16.5543ZM17.8528 14.445L19.52 15.9607L19.6594 15.8074L17.9921 14.2917L17.8528 14.445ZM18.2614 13.9202L17.8528 14.2917L17.9921 14.445L18.4008 14.0735L18.2614 13.9202ZM19.2422 13.0286L18.2614 13.9202L18.4008 14.0735L19.3816 13.1819L19.2422 13.0286ZM21.0487 13.0285C20.5485 12.5749 19.7425 12.5749 19.2423 13.0285L19.3815 13.182C19.8027 12.8 20.4883 12.8 20.9095 13.182L21.0487 13.0285ZM21.1369 13.1173C21.1092 13.0864 21.0798 13.0568 21.0488 13.0286L20.9094 13.1819C20.9352 13.2054 20.9597 13.23 20.9827 13.2557L21.1369 13.1173ZM21.1634 13.1868V13.1865H20.9562V13.1868H21.1634ZM21.1371 14.6084C21.5239 14.1749 21.5239 13.5513 21.1371 13.1178L20.9825 13.2558C21.2991 13.6107 21.2991 14.1156 20.9825 14.4705L21.1371 14.6084ZM21.1634 14.5397V14.5395H20.9562V14.5397H21.1634ZM21.0488 14.6976C21.0798 14.6695 21.1092 14.6398 21.1369 14.6089L20.9827 14.4706C20.9597 14.4962 20.9352 14.5208 20.9094 14.5443L21.0488 14.6976ZM19.6594 15.9607L21.0488 14.6976L20.9094 14.5443L19.52 15.8074L19.6594 15.9607ZM17.5743 17.5762C17.3038 17.8252 16.9041 17.9253 16.5273 17.8343L16.4786 18.0357C16.9193 18.1422 17.3908 18.0267 17.7146 17.7287L17.5743 17.5762ZM18.9642 16.3127L17.5748 17.5758L17.7142 17.7291L19.1035 16.466L18.9642 16.3127ZM17.2969 14.9504L18.9642 16.466L19.1035 16.3127L17.4363 14.7971L17.2969 14.9504ZM16.0469 16.2135L17.4363 14.9504L17.2969 14.7971L15.9075 16.0601L16.0469 16.2135ZM15.7658 17.1455C15.669 16.8143 15.7736 16.459 16.0464 16.2139L15.908 16.0597C15.5792 16.355 15.4465 16.7917 15.567 17.2036L15.7658 17.1455ZM16.5273 17.8343C16.1509 17.7434 15.863 17.4778 15.7658 17.1455L15.567 17.2036C15.6871 17.6143 16.0377 17.9292 16.4786 18.0357L16.5273 17.8343Z" fill="#8092A4"/>
<path fill-rule="evenodd" clip-rule="evenodd" d="M20.9315 17.2517C19.8463 17.2517 18.9666 18.0515 18.9666 19.038C18.9666 20.0245 19.8463 20.8243 20.9315 20.8243C22.0167 20.8243 22.8964 20.0245 22.8964 19.038C22.8952 18.0519 22.0162 17.2528 20.9315 17.2517ZM20.9315 17.9662C21.4308 17.9668 21.8758 18.2529 22.0428 18.6807H19.8201C19.9871 18.2529 20.4321 17.9668 20.9315 17.9662ZM19.8201 19.3952C19.9871 19.8231 20.4321 20.1092 20.9315 20.1098C21.4308 20.1092 21.8758 19.8231 22.0428 19.3952H19.8201Z" fill="#8092A4"/>
<path d="M20.9315 17.2517L20.9316 17.1481H20.9315V17.2517ZM22.8964 19.038H23L23 19.0379L22.8964 19.038ZM22.0428 18.6807V18.7843H22.1945L22.1393 18.6431L22.0428 18.6807ZM20.9315 17.9662L20.9316 17.8626L20.9314 17.8626L20.9315 17.9662ZM19.8201 18.6807L19.7236 18.6431L19.6685 18.7843H19.8201V18.6807ZM20.9315 20.1098L20.9314 20.2134L20.9316 20.2134L20.9315 20.1098ZM19.8201 19.3952V19.2916H19.6685L19.7236 19.4329L19.8201 19.3952ZM22.0428 19.3952L22.1393 19.4329L22.1945 19.2916H22.0428V19.3952ZM19.0702 19.038C19.0702 18.1178 19.894 17.3553 20.9315 17.3553V17.1481C19.7986 17.1481 18.863 17.9852 18.863 19.038H19.0702ZM20.9315 20.7207C19.894 20.7207 19.0702 19.9582 19.0702 19.038H18.863C18.863 20.0908 19.7986 20.9279 20.9315 20.9279V20.7207ZM22.7928 19.038C22.7928 19.9582 21.969 20.7207 20.9315 20.7207V20.9279C22.0644 20.9279 23 20.0908 23 19.038H22.7928ZM20.9314 17.3553C21.9684 17.3564 22.7916 18.1182 22.7928 19.0381L23 19.0379C22.9987 17.9856 22.0639 17.1493 20.9316 17.1481L20.9314 17.3553ZM22.1393 18.6431C21.9551 18.1712 21.4687 17.8633 20.9316 17.8626L20.9314 18.0698C21.393 18.0704 21.7965 18.3346 21.9463 18.7184L22.1393 18.6431ZM19.8201 18.7843H22.0428V18.5771H19.8201V18.7843ZM20.9314 17.8626C20.3942 17.8633 19.9078 18.1712 19.7236 18.6431L19.9166 18.7184C20.0664 18.3346 20.47 18.0704 20.9316 18.0698L20.9314 17.8626ZM20.9316 20.0061C20.47 20.0056 20.0664 19.7413 19.9166 19.3576L19.7236 19.4329C19.9078 19.9048 20.3942 20.2127 20.9314 20.2134L20.9316 20.0061ZM21.9463 19.3576C21.7965 19.7413 21.393 20.0056 20.9314 20.0061L20.9316 20.2134C21.4687 20.2127 21.9551 19.9048 22.1393 19.4329L21.9463 19.3576ZM19.8201 19.4988H22.0428V19.2916H19.8201V19.4988Z" fill="#8092A4"/>
<path fill-rule="evenodd" clip-rule="evenodd" d="M18.1806 11.1784C18.1806 10.1919 17.3009 9.39217 16.2157 9.39217C15.1305 9.39217 14.2508 10.1919 14.2508 11.1784C14.2508 12.165 15.1305 12.9647 16.2157 12.9647C17.3004 12.9636 18.1794 12.1645 18.1806 11.1784ZM16.2157 10.1067C16.7151 10.1073 17.16 10.3933 17.327 10.8212H15.1043C15.2713 10.3933 15.7163 10.1073 16.2157 10.1067ZM16.2157 12.2498C16.7151 12.2498 17.1604 11.9637 17.327 11.5357H15.1043C15.271 11.9637 15.7163 12.2498 16.2157 12.2498Z" fill="#8092A4"/>
<path d="M18.1806 11.1784L18.2842 11.1786V11.1784H18.1806ZM16.2157 12.9647V13.0683L16.2158 13.0683L16.2157 12.9647ZM17.327 10.8212V10.9248H17.4787L17.4236 10.7835L17.327 10.8212ZM16.2157 10.1067L16.2158 10.0031L16.2156 10.0031L16.2157 10.1067ZM15.1043 10.8212L15.0078 10.7835L14.9527 10.9248H15.1043V10.8212ZM17.327 11.5357L17.4236 11.5733L17.4786 11.4321H17.327V11.5357ZM15.1043 11.5357V11.4321H14.9528L15.0078 11.5733L15.1043 11.5357ZM16.2157 9.49577C17.2532 9.49577 18.077 10.2582 18.077 11.1784H18.2842C18.2842 10.1256 17.3486 9.28857 16.2157 9.28857V9.49577ZM14.3544 11.1784C14.3544 10.2582 15.1782 9.49577 16.2157 9.49577V9.28857C15.0828 9.28857 14.1472 10.1256 14.1472 11.1784H14.3544ZM16.2157 12.8611C15.1782 12.8611 14.3544 12.0987 14.3544 11.1784H14.1472C14.1472 12.2313 15.0828 13.0683 16.2157 13.0683V12.8611ZM18.077 11.1783C18.0758 12.0982 17.2526 12.86 16.2156 12.8611L16.2158 13.0683C17.3481 13.0672 18.2829 12.2308 18.2842 11.1786L18.077 11.1783ZM17.4236 10.7835C17.2394 10.3116 16.753 10.0037 16.2158 10.0031L16.2156 10.2103C16.6772 10.2108 17.0807 10.4751 17.2305 10.8589L17.4236 10.7835ZM15.1043 10.9248H17.327V10.7176H15.1043V10.9248ZM16.2156 10.0031C15.6784 10.0037 15.192 10.3116 15.0078 10.7835L15.2009 10.8589C15.3507 10.4751 15.7542 10.2108 16.2158 10.2103L16.2156 10.0031ZM17.2305 11.4981C17.081 11.8819 16.6773 12.1462 16.2157 12.1462V12.3534C16.7529 12.3534 17.2397 12.0454 17.4236 11.5733L17.2305 11.4981ZM15.1043 11.6393H17.327V11.4321H15.1043V11.6393ZM16.2157 12.1462C15.7541 12.1462 15.3504 11.8819 15.2009 11.4981L15.0078 11.5733C15.1917 12.0454 15.6784 12.3534 16.2157 12.3534V12.1462Z" fill="#8092A4"/>
</svg>
